<svg version="1.2" xmlns="http://www.w3.org/2000/svg" viewBox="0 0 720 720" width="720" height="720">
	<path id="Shape 1" fill="#ffffff" d="m720 135v450q0 55.8-39.6 95.4-39.6 39.6-95.4 39.6h-450q-55.8 0-95.4-39.6-39.6-39.6-39.6-95.4v-450q0-55.8 39.6-95.4 39.6-39.6 95.4-39.6h450q55.8 0 95.4 39.6 39.6 39.6 39.6 95.4z"/>
	<path id="Layer" fill="#65c3c8" d="m200 136c0-17.7 14.3-32 32-32h256c17.7 0 32 14.3 32 32 0 17.7-14.3 32-32 32h-29.5l11.4 148.2c36.7 19.9 65.6 53.2 79.5 94.7l1 3c3.2 9.7 0.7 20.5-5.3 28.8-5.2 8.4-14.8 13.3-25.1 13.3h-320c-10.3 0-19.9-4.9-26-13.3-6-8.3-7.6-19.1-4.4-28.8l1-3c13.9-41.5 42.8-74.8 79.5-94.7l11.4-148.2h-29.5c-17.7 0-32-14.3-32-32zm192 352v96c0 17.7-14.3 32-32 32-17.7 0-32-14.3-32-32v-96z"/>
</svg>
